<svg width="78" height="42" viewBox="0 0 78 42" fill="none" xmlns="http://www.w3.org/2000/svg">
<path d="M76.6886 36.1245L60.0215 1.80332C59.5817 0.89502 58.6576 0.317261 57.6473 0.317261H57.1991C56.1887 0.317261 55.2646 0.89502 54.8249 1.80332L40.2397 31.8329L26.8682 4.29769C25.6852 1.86443 23.2135 0.317261 20.5025 0.317261H4.07474C1.07142 0.317261 -0.896454 3.45327 0.411754 6.15041L15.5786 37.38C16.8562 40.0105 19.5283 41.6798 22.4565 41.6798H24.4243C27.1131 41.6798 29.5625 40.1466 30.7344 37.7328L32.332 34.444L29.0031 27.5858L25.7966 34.1884C25.1508 35.5162 23.8008 36.3606 22.3201 36.3606H21.7467L7.92421 7.90313C7.43154 6.8865 8.17193 5.7032 9.30479 5.7032H20.8866L37.5398 39.9966C38.0408 41.0271 39.0874 41.6826 40.237 41.6826C41.3865 41.6826 42.4331 41.0271 42.9341 39.9966L56.957 11.1253C57.1462 10.7364 57.7001 10.7364 57.8894 11.1253L69.41 34.8467C69.7524 35.5495 69.2374 36.3661 68.4553 36.3661H63.8487L58.2373 24.8137C57.9061 24.1332 56.9347 24.1332 56.6063 24.8137L49.4111 39.6327C48.9518 40.5799 49.6421 41.6826 50.6971 41.6826H52.9934C54.2654 41.6826 55.4261 40.9577 55.98 39.816L57.4218 36.8494L58.8636 39.816C59.4175 40.9577 60.5782 41.6826 61.8502 41.6826H73.1982C76.0596 41.6826 77.9384 38.6938 76.6886 36.1245Z" fill="url(#paint0_linear_1363_5440)"/>
<path d="M38.1772 22.4138L47.9136 2.3672C48.3729 1.42 47.6826 0.317261 46.6277 0.317261H43.4574C42.7198 0.317261 42.0462 0.73947 41.7233 1.40056L34.8483 15.5557L38.1772 22.4138Z" fill="url(#paint1_linear_1363_5440)"/>
<defs>
<linearGradient id="paint0_linear_1363_5440" x1="3.6808" y1="25.7473" x2="72.8248" y2="16.3177" gradientUnits="userSpaceOnUse">
<stop stop-color="#00FFA2"/>
<stop offset="0.433" stop-color="#0091FF"/>
<stop offset="1" stop-color="#FF00B7"/>
</linearGradient>
<linearGradient id="paint1_linear_1363_5440" x1="2.45344" y1="18.6172" x2="66.4831" y2="6.43734" gradientUnits="userSpaceOnUse">
<stop stop-color="#00FFA2"/>
<stop offset="0.433" stop-color="#0091FF"/>
<stop offset="1" stop-color="#FF00B7"/>
</linearGradient>
</defs>
</svg>
